<?xml version="1.0" encoding="UTF-8"?>
<svg id="_图层_1" data-name="图层 1" xmlns="http://www.w3.org/2000/svg" viewBox="0 0 35.74 30.82">
  <defs>
    <style>
      .cls-1 {
        fill: #bc7748;
      }

      .cls-1, .cls-2, .cls-3, .cls-4, .cls-5, .cls-6, .cls-7 {
        stroke-width: 0px;
      }

      .cls-2 {
        fill: #245b01;
      }

      .cls-3 {
        fill: #f27520;
      }

      .cls-4 {
        fill: #84af00;
      }

      .cls-5 {
        fill: #632e0a;
      }

      .cls-6 {
        fill: #acce1b;
      }

      .cls-7 {
        fill: #aaa;
      }
    </style>
  </defs>
  <path class="cls-3" d="m32.2,25.48c-3.87-3.63-7.74-7.26-11.6-10.88-.01-.01-.03-.03-.05-.04-.03-.02-.1-.06-.18-.06-.08,0-.17.03-.23.09l-2.57,2.47c-.13.13-.24.38-.11.52l10.8,11.76c.13.14.52-.06.65-.2l.93-.93s-.02-.02-.03-.04c-.05-.08-.07-.17-.08-.26-.02-.06-.04-.12-.05-.19-.02-.1-.04-.2-.04-.3,0-.08.02-.15.06-.21.05-.16.16-.3.33-.38.3-.15.85-.18,1.12.06l.81-.82c.13-.13.38-.45.24-.59Z"/>
  <path class="cls-3" d="m30.89,24.94c-3.58-.37-4.23,5.13-.67,5.62,3.58.37,4.23-5.13.67-5.62Zm.7,2.77c-.09,1.44-2.27.99-1.76-.37.33-.81,1.85-.57,1.76.37Z"/>
  <path class="cls-3" d="m20.63,14.64c-1.16-1.18.75-2.49-1.8-4.9-1.88-1.66-4.73-1.92-4.25-.6.35.84,2.65,2.44,2.51,2.87-.13.3-1.42,2.08-2.07,2.07-.41.07-1.93-2.11-2.74-2.55-.24-.14-.68-.27-.84.08-.31.22-.03,1.93.03,2.03.53,2.14,1.77,3.8,4.51,3.75.36-.13,1.4.1,1.7.39.28.24,2.84-1.15,2.95-3.14Z"/>
  <path class="cls-7" d="m25.48,12.01c-.03-.13,0-.26.08-.37.95-1.36-.98-2.74,1.6-5.49,1.98-1.98,5.14-2.46,4.69-.96-.34.96-2.78,2.89-2.6,3.37.17.33,1.7,2,2.42,1.94.47.05,2.04-2.25,2.91-2.81.25-.17.74-.35.94.04.36.22.17,2.14.1,2.26-.45,2.42-1.73,4.45-4.79,4.49-.37,0-1.54.23-1.85.55-.28.29-3.09-.95-3.51-3.02Z"/>
  <path class="cls-7" d="m26.03,17.96l-3.03-2.6c-.21-.18-.23-.5-.05-.71l2.72-3.08,3.5,3.29-2.41,3.04c-.18.23-.51.26-.73.07Z"/>
  <path class="cls-7" d="m17.99,29.17l-4.59-4.4,4.39-4.47c.18-.18.47-.18.65,0l3.16,3.25c.18.19.2.48.05.69l-3.65,4.92Z"/>
  <ellipse class="cls-7" cx="15.42" cy="27.28" rx="3.15" ry="3.27" transform="translate(-4.26 2.89) rotate(-9.43)"/>
  <path class="cls-7" d="m24.25,7.97l-1.66,1c-.52.31-1.2.21-1.62-.24-.72-.77-1.64-1.38-2.72-1.72-3.35-1.08-6.94.75-8.01,4.07-.46,1.42-.38,2.88.11,4.17.22.57-.01,1.2-.54,1.5l-1.66.96c-.67.39-1.54.1-1.84-.61-.95-2.27-1.12-4.87-.31-7.38C7.82,4.06,13.9.97,19.59,2.8c2.01.65,3.7,1.82,4.96,3.31.5.59.35,1.47-.31,1.86Z"/>
  <path class="cls-7" d="m12.53,4.07l-3.38,2.78-1.8-2.98c-.11-.18-.06-.42.11-.56l2.05-1.69c.18-.14.43-.14.58.01l2.45,2.42Z"/>
  <path class="cls-7" d="m18.39,3.87l-4.37.03.48-3.51c.03-.21.21-.37.44-.37L17.58,0c.23,0,.42.16.44.38l.37,3.49Z"/>
  <path class="cls-7" d="m7.83,8.01l-1.02,4.35-3.27-1.29c-.2-.08-.31-.3-.26-.52l.62-2.63c.05-.23.26-.38.48-.35l3.45.45Z"/>
  <path class="cls-7" d="m23.48,6.84l-3.61-2.34,2.42-2.81c.15-.17.39-.21.57-.09l2.18,1.42c.19.12.25.37.14.57l-1.71,3.25Z"/>
  <g>
    <polygon class="cls-2" points="14.67 18.15 14.66 20.3 7.47 23.81 7.47 21.76 14.67 18.15"/>
    <polygon class="cls-4" points="14.67 18.11 7.47 21.71 .31 18.11 7.47 14.55 14.67 18.11"/>
    <polygon class="cls-5" points="14.66 20.3 14.63 26.97 7.47 30.58 7.47 23.81 14.66 20.3"/>
    <polygon class="cls-1" points="7.43 23.83 7.43 30.58 .27 27.01 .29 20.29 7.4 23.85 7.43 23.83"/>
    <polygon class="cls-6" points="7.43 21.75 7.43 23.83 7.4 23.85 .29 20.29 .29 18.16 7.43 21.75"/>
  </g>
</svg>